<svg width="30" height="29" viewBox="0 0 30 29" fill="none" xmlns="http://www.w3.org/2000/svg">
<path d="M22 1H8C4.13401 1 1 4.02208 1 7.75V21.25C1 24.9779 4.13401 28 8 28H22C25.866 28 29 24.9779 29 21.25V7.75C29 4.02208 25.866 1 22 1Z" stroke="#FEFAFA" stroke-width="2" stroke-linecap="round" stroke-linejoin="round"/>
<path d="M19.9795 13.1679C20.1522 14.2915 19.9532 15.4389 19.4107 16.4471C18.8682 17.4553 18.0099 18.2728 16.9577 18.7835C15.9056 19.2941 14.7133 19.4719 13.5504 19.2914C12.3874 19.111 11.3131 18.5815 10.4802 17.7784C9.64734 16.9752 9.09829 15.9393 8.91116 14.8179C8.72402 13.6965 8.90835 12.5468 9.43792 11.5322C9.96748 10.5177 10.8153 9.68998 11.8608 9.16685C12.9064 8.64373 14.0963 8.45182 15.2615 8.61843C16.45 8.78837 17.5503 9.3224 18.3998 10.1416C19.2494 10.9609 19.8032 12.0219 19.9795 13.1679Z" stroke="#FFFDFD" stroke-width="2" stroke-linecap="round" stroke-linejoin="round"/>
<ellipse cx="23.176" cy="6.832" rx="1.344" ry="1.296" fill="#FFFAFA"/>
</svg>
