<svg width="110" height="112" viewBox="0 0 110 112" fill="none" xmlns="http://www.w3.org/2000/svg">
<g filter="url(#filter0_d_4_81)">
<rect x="4" width="100" height="100" rx="10" fill="#130101"/>
</g>
<circle cx="54" cy="44" r="20" fill="#FFFDFD"/>
<path d="M50.6667 58.578C44.6061 60.3961 44.6061 55.5476 42.1818 54.9416L50.6667 58.578ZM59.1515 62.2143V57.5234C59.197 56.9454 59.1189 56.3644 58.9224 55.8189C58.726 55.2734 58.4157 54.776 58.0121 54.3598C61.8182 53.9355 65.8182 52.4931 65.8182 45.8749C65.8179 44.1826 65.1669 42.5552 64 41.3295C64.5526 39.8489 64.5135 38.2123 63.8909 36.7598C63.8909 36.7598 62.4606 36.3355 59.1515 38.5537C56.3733 37.8008 53.4448 37.8008 50.6667 38.5537C47.3576 36.3355 45.9273 36.7598 45.9273 36.7598C45.3047 38.2123 45.2656 39.8489 45.8182 41.3295C44.6426 42.5643 43.9909 44.2064 44 45.9113C44 52.481 48 53.9234 51.8061 54.3961C51.4073 54.8082 51.0997 55.2997 50.9034 55.8385C50.7071 56.3773 50.6264 56.9514 50.6667 57.5234V62.2143" fill="#131212"/>
<path d="M59.1515 62.2143V57.5234C59.197 56.9454 59.1189 56.3644 58.9224 55.8189C58.726 55.2734 58.4157 54.776 58.0121 54.3598C61.8182 53.9355 65.8182 52.4931 65.8182 45.8749C65.8179 44.1826 65.1669 42.5552 64 41.3295C64.5526 39.8489 64.5135 38.2123 63.8909 36.7598C63.8909 36.7598 62.4606 36.3355 59.1515 38.5537C56.3733 37.8008 53.4448 37.8008 50.6667 38.5537C47.3576 36.3355 45.9273 36.7598 45.9273 36.7598C45.3047 38.2123 45.2656 39.8489 45.8182 41.3295C44.6426 42.5643 43.9909 44.2064 44 45.9113C44 52.481 48 53.9234 51.8061 54.3961C51.4073 54.8082 51.0997 55.2997 50.9034 55.8385C50.7071 56.3773 50.6264 56.9514 50.6667 57.5234V62.2143M50.6667 58.578C44.6061 60.3961 44.6061 55.5476 42.1818 54.9416L50.6667 58.578Z" stroke="black" stroke-width="2" stroke-linecap="round" stroke-linejoin="round"/>
<defs>
<filter id="filter0_d_4_81" x="0" y="0" width="110" height="112" filterUnits="userSpaceOnUse" color-interpolation-filters="sRGB">
<feFlood flood-opacity="0" result="BackgroundImageFix"/>
<feColorMatrix in="SourceAlpha" type="matrix" values="0 0 0 0 0 0 0 0 0 0 0 0 0 0 0 0 0 0 127 0" result="hardAlpha"/>
<feOffset dx="1" dy="7"/>
<feGaussianBlur stdDeviation="2.5"/>
<feComposite in2="hardAlpha" operator="out"/>
<feColorMatrix type="matrix" values="0 0 0 0 0 0 0 0 0 0 0 0 0 0 0 0 0 0 0.25 0"/>
<feBlend mode="normal" in2="BackgroundImageFix" result="effect1_dropShadow_4_81"/>
<feBlend mode="normal" in="SourceGraphic" in2="effect1_dropShadow_4_81" result="shape"/>
</filter>
</defs>
</svg>
