<svg width="31" height="27" viewBox="0 0 31 27" fill="none" xmlns="http://www.w3.org/2000/svg">
<rect width="31" height="27" fill="#1E2228"/>
<path d="M24.2913 5.61183C23.7805 5.10083 23.1741 4.69547 22.5066 4.41891C21.8392 4.14235 21.1238 4 20.4013 4C19.6788 4 18.9634 4.14235 18.2959 4.41891C17.6285 4.69547 17.022 5.10083 16.5113 5.61183L15.4513 6.67183L14.3913 5.61183C13.3596 4.58013 11.9603 4.00053 10.5013 4.00053C9.04226 4.00053 7.64298 4.58013 6.61129 5.61183C5.5796 6.64352 5 8.04279 5 9.50183C5 10.9609 5.5796 12.3601 6.61129 13.3918L7.67129 14.4518L15.4513 22.2318L23.2313 14.4518L24.2913 13.3918C24.8023 12.8811 25.2076 12.2746 25.4842 11.6072C25.7608 10.9397 25.9031 10.2243 25.9031 9.50183C25.9031 8.77934 25.7608 8.06393 25.4842 7.39647C25.2076 6.72901 24.8023 6.12258 24.2913 5.61183V5.61183Z" fill="#FB0808"/>
</svg>
