<svg width="28" height="27" viewBox="0 0 28 27" fill="none" xmlns="http://www.w3.org/2000/svg">
<rect width="28" height="27" fill="#FFFDFD"/>
<path d="M25 4.01006C24.0424 4.68553 22.9821 5.20217 21.86 5.54006C21.2577 4.84757 20.4573 4.35675 19.567 4.13398C18.6767 3.91122 17.7395 3.96725 16.8821 4.29451C16.0247 4.62177 15.2884 5.20446 14.773 5.96377C14.2575 6.72309 13.9877 7.62239 14 8.54006V9.54006C12.2426 9.58562 10.5013 9.19587 8.93101 8.4055C7.36074 7.61513 6.01032 6.44869 5 5.01006C5 5.01006 1 14.0101 10 18.0101C7.94053 19.408 5.48716 20.109 3 20.0101C12 25.0101 23 20.0101 23 8.51006C22.9991 8.23151 22.9723 7.95365 22.92 7.68006C23.9406 6.67355 24.6608 5.40277 25 4.01006V4.01006Z" fill="#0E0000"/>
</svg>
